# xmcd CD database file
#
# Track frame offsets:
#	150
#	38247
#	65092
#	87210
#	116950
#	141202
#	159367
#	184605
#	202552
#	229072
#
# Disc length: 3419 seconds
#
# Revision: 0
# Processed by: cddbd v1.4PL0 Copyright (c) Steve Scherf et al.
# Submitted via: CDex 1.50Beta7
#
DISCID=810d590a
DTITLE=Shigeharu Mukai - Stance
DYEAR=1996
DGENRE=Jazz
TTITLE0=Stance
TTITLE1=A Good Train
TTITLE2=Moon
TTITLE3=Anthropology
TTITLE4=Spiritual Calling
TTITLE5=The Second Hart
TTITLE6=Up Jumped Spring
TTITLE7=Shuffle
TTITLE8=A New Thing
TTITLE9=If You Could See Mee 
EXTD=YEAR: 1996
EXTT0=
EXTT1=
EXTT2=
EXTT3=
EXTT4=
EXTT5=
EXTT6=
EXTT7=
EXTT8=
EXTT9=
PLAYORDER=
